# xmcd CD database file
#
# Track frame offsets:
#	150
#	15814
#	29027
#	39985
#	52242
#	67504
#	86716
#	100470
#	121059
#	137428
#	154424
#	174063
#	181612
#	200810
#	217220
#	251584
#
# Disc length: 3590 seconds
#
# Revision: 0
# Processed by: cddbd v1.5.2PL0 Copyright (c) Steve Scherf et al.
# Submitted via: CDex 1.51
#
DISCID=d40e0410
DTITLE=Karl Jenkins - This Land Of Ours
DYEAR=2007
DGENRE=New Age
TTITLE0=Cantilena- Ysbryd Y Mynyddoedd (Spirit Of The Mountains)
TTITLE1=Cysgu Di (Going Home)
TTITLE2=Delilah
TTITLE3=Abide With Me
TTITLE4=Suo Gan
TTITLE5=Danny Boy
TTITLE6=Son Of Maria
TTITLE7=Pie Jesu (From Requiem)
TTITLE8=Hyfrydol
TTITLE9=Evening Prayer
TTITLE10=In These Stones Horizons Sing
TTITLE11=Flower Duet
TTITLE12=Myfanwy
TTITLE13=Agnus Dei (From The Armed Man)
TTITLE14=Benedictus (From The Armed Man)
TTITLE15=Lle Cana'r Eryrod (Where Eagles Sing)
EXTD=YEAR: 2007
EXTT0=
EXTT1=
EXTT2=
EXTT3=
EXTT4=
EXTT5=
EXTT6=
EXTT7=
EXTT8=
EXTT9=
EXTT10=
EXTT11=
EXTT12=
EXTT13=
EXTT14=
EXTT15=
PLAYORDER=
